  0
SECTION
  2
HEADER
  9
$ACADVER
  1
AC1009
  9
$INSBASE
 10
0.0
 20
0.0
 30
0.0
  9
$EXTMIN
 10
-6.00000000000007
 20
-1.53134210293124e-14
 30
0.0
  9
$EXTMAX
 10
178.5
 20
178.5
 30
0.0
  9
$LIMMIN
 10
0.0
 20
0.0
  9
$LIMMAX
 10
12.0000
 20
 9.0000
9
$ORTHOMODE
70
0
9
$REGENMODE
70
1
9
$FILLMODE
70
1
9
$QTEXTMODE
70
0
9
$MIRRTEXT
70
1
9
$DRAGMODE
70
2
9
$LTSCALE
40
1.0
9
$OSMODE
70
0
9
$ATTMODE
70
1
9
$TEXTSIZE
40
0.2
9
$TRACEWID
40
0.05
9
$TEXTSTYLE
7
STANDARD
9
$CLAYER
8
0
9
$CELTYPE
6
BYLAYER
9
$CECOLOR
62
256
9
$DIMSCALE
40
1.0
9
$DIMASZ
40
0.18
9
$DIMEXO
40
0.0625
9
$DIMDLI
40
0.38
9
$DIMRND
40
0.0
9
$DIMDLE
40
0.0
9
$DIMEXE
40
0.18
9
$DIMTP
40
0.0
9
$DIMTM
40
0.0
9
$DIMTXT
40
0.18
9
$DIMCEN
40
0.09
9
$DIMTSZ
40
0.0
9
$DIMTOL
70
0
9
$DIMLIM
70
0
9
$DIMTIH
70
1
9
$DIMTOH
70
1
9
$DIMSE1
70
0
9
$DIMSE2
70
0
9
$DIMTAD
70
0
9
$DIMZIN
70
0
9
$DIMBLK
1

9
$DIMASO
70
1
9
$DIMSHO
70
1
9
$DIMPOST
1

9
$DIMAPOST
1

9
$DIMALT
70
0
9
$DIMALTD
70
2
9
$DIMALTF
40
25.4
9
$DIMLFAC
40
1.0
9
$DIMTOFL
70
0
9
$DIMTVP
40
0.0
9
$DIMTIX
70
0
9
$DIMSOXD
70
0
9
$DIMSAH
70
0
9
$DIMBLK1
1

9
$DIMBLK2
1

9
$DIMSTYLE
2
*UNNAMED
9
$DIMCLRD
70
0
9
$DIMCLRE
70
0
9
$DIMCLRT
70
0
9
$DIMTFAC
40
1.0
9
$DIMGAP
40
0.09
9
$LUNITS
70
2
9
$LUPREC
70
4
9
$SKETCHINC
40
0.1
9
$FILLETRAD
40
0.0
9
$AUNITS
70
0
9
$AUPREC
70
0
9
$MENU
1
acad
9
$ELEVATION
40
0.0
9
$PELEVATION
40
0.0
9
$THICKNESS
40
0.0
9
$LIMCHECK
70
0
9
$BLIPMODE
70
1
9
$CHAMFERA
40
0.0
9
$CHAMFERB
40
0.0
9
$SKPOLY
70
0
9
$TDCREATE
40
2449214.701881018
9
$TDUPDATE
40
2449214.701881018
9
$TDINDWG
40
0.0000000000
9
$TDUSRTIMER
40
0.0000000000
9
$USRTIMER
70
1
9
$ANGBASE
50
0.0
9
$ANGDIR
70
0
9
$PDMODE
70
0
9
$PDSIZE
40
0.0
9
$PLINEWID
40
0.0
9
$COORDS
70
1
9
$SPLFRAME
70
0
9
$SPLINETYPE
70
6
9
$SPLINESEGS
70
8
9
$ATTDIA
70
0
9
$ATTREQ
70
1
9
$HANDLING
70
0
9
$HANDSEED
5
0
9
$SURFTAB1
70
6
9
$SURFTAB2
70
6
9
$SURFTYPE
70
6
9
$SURFU
70
6
9
$SURFV
70
6
9
$UCSNAME
2

9
$UCSORG
10
0.0
20
0.0
30
0.0
9
$UCSXDIR
10
1.0
20
0.0
30
0.0
9
$UCSYDIR
10
0.0
20
1.0
30
0.0
9
$PUCSNAME
2

9
$PUCSORG
10
0.0
20
0.0
30
0.0
9
$PUCSXDIR
10
1.0
20
0.0
30
0.0
9
$PUCSYDIR
10
0.0
20
1.0
30
0.0
9
$USERI1
70
0
9
$USERI2
70
0
9
$USERI3
70
0
9
$USERI4
70
0
9
$USERI5
70
0
9
$USERR1
40
0.0
9
$USERR2
40
0.0
9
$USERR3
40
0.0
9
$USERR4
40
0.0
9
$USERR5
40
0.0
9
$WORLDVIEW
70
1
9
$SHADEDGE
70
3
9
$SHADEDIF
70
70
9
$TILEMODE
70
1
9
$MAXACTVP
70
16
9
$PINSBASE
10
0.0
20
0.0
30
0.0
9
$PLIMCHECK
70
0
  9
$PEXTMIN
 10
1.0000000000000000E+020
 20
1.0000000000000000E+020
 30
1.0000000000000000E+020
  9
$PEXTMAX
 10
-1.0000000000000000E+020
 20
-1.0000000000000000E+020
 30
-1.0000000000000000E+020
  9
$PLIMMIN
 10
-6.00000000000007
 20
-1.53134210293124e-14
  9
$PLIMMAX
 10
12.0000
 20
 9.0000
  9
$UNITMODE
 70
0
  9
$VISRETAIN
 70
1
  9
$PLINEGEN
 70
0
  9
$PSLTSCALE
 70
1
  0
ENDSEC
  0
SECTION
  2
TABLES
  0
TABLE
  2
VPORT
 70
3
  0
VPORT
  2
*ACTIVE
 70
0
 10
0.0
 20
0.0
 11
1.0
 21
1.0
 12
86.25
 22
89.25
 13
0.0
 23
0.0
 14
1.0
 24
1.0
 15
1.0
 25
1.0
 16
0.0
 26
0.0
 36
1.0
 17
0.0
 27
0.0
 37
0.0
 40
178.5
 41
1.03361344537815
 42
50.0
 43
0.0
 44
0.0
 50
0.0
 51
0.0
 71
0
 72
100
 73
1
 74
3
 75
0
 76
0
 77
0
 78
0
  0
ENDTAB
0
TABLE
2
LTYPE
70
1
0
LTYPE
2
CONTINUOUS
70
64
3
Solid line
72
65
73
0
40
0.0
0
ENDTAB
  0
TABLE
  2
LAYER
 70
2
  0
LAYER
  2
Slice
 70
0
 62
7
  6
CONTINUOUS
  0
ENDTAB
0
TABLE
2
STYLE
70
1
0
STYLE
2
STANDARD
70
64
40
0.0
41
1.0
50
0.0
71
0
42
0.2
3
txt
4

0
ENDTAB
0
TABLE
2
VIEW
70
0
0
ENDTAB
0
TABLE
2
UCS
70
0
0
ENDTAB
0
TABLE
2
APPID
70
1
0
APPID
2
ACAD
70
64
0
ENDTAB
0
TABLE
2
DIMSTYLE
70
0
0
ENDTAB
0
ENDSEC
0
SECTION
2
BLOCKS
0
ENDSEC
  0
SECTION
  2
ENTITIES
  0
LINE
  5
0
  8
Slice
 10
16.8705627484772
 20
36.6695526217005
 30
0
 11
36.6695526217005
 21
16.8705627484771
 31
0
  0
LINE
  5
0
  8
Slice
 10
36.6695526217005
 20
16.8705627484771
 30
0
 11
90.8632213824714
 21
71.064231509248
 31
0
  0
ARC
  5
0
  8
Slice
 10
91.2167747730646
 20
70.7106781186548
 30
0
 40
0.499999999999984
 50
44.9999999999908
 51
135
  0
LINE
  5
0
  8
Slice
 10
91.5703281636579
 20
71.064231509248
 30
0
 11
130.853553390593
 21
31.7810062823127
 31
0
  0
ARC
  5
0
  8
Slice
 10
130.5
 20
31.4274528917195
 30
0
 40
0.5
 50
0
 51
45.0000000000173
  0
LINE
  5
0
  8
Slice
 10
131
 20
31.4274528917195
 30
0
 11
131
 21
15.8967424994913
 31
0
  0
LINE
  5
0
  8
Slice
 10
131
 20
15.8967424994913
 30
0
 11
131
 21
14.0787276166244
 31
0
  0
ARC
  5
0
  8
Slice
 10
129
 20
14.0787276166244
 30
0
 40
1.99999999999987
 50
-109.999999999991
 51
0
  0
LINE
  5
0
  8
Slice
 10
128.315959713349
 20
12.1993423750526
 30
0
 11
119.184040286651
 21
15.5230892280877
 31
0
  0
ARC
  5
0
  8
Slice
 10
118.5
 20
13.6437039865159
 30
0
 40
1.99999999999986
 50
70.0000000000094
 51
180
  0
LINE
  5
0
  8
Slice
 10
116.5
 20
13.6437039865159
 30
0
 11
116.5
 21
0.500000000000107
 31
0
  0
ARC
  5
0
  8
Slice
 10
117
 20
0.500000000000106
 30
0
 40
0.5
 50
180
 51
270
  0
LINE
  5
0
  8
Slice
 10
117
 20
9.6780820905255e-14
 30
0
 11
143.5
 21
4.80841420320413e-14
 31
0
  0
ARC
  5
0
  8
Slice
 10
143.5
 20
0.500000000000059
 30
0
 40
0.500000000000011
 50
-90
 51
1.14499968532687e-13
  0
LINE
  5
0
  8
Slice
 10
144
 20
0.50000000000006
 30
0
 11
144
 21
5.50000000000005
 31
0
  0
ARC
  5
0
  8
Slice
 10
144.5
 20
5.50000000000006
 30
0
 40
0.499999999999989
 50
90
 51
180.000000000001
  0
LINE
  5
0
  8
Slice
 10
144.5
 20
6.00000000000005
 30
0
 11
155.5
 21
6.00000000000005
 31
0
  0
ARC
  5
0
  8
Slice
 10
155.5
 20
5.50000000000005
 30
0
 40
0.5
 50
0
 51
90
  0
LINE
  5
0
  8
Slice
 10
156
 20
5.50000000000005
 30
0
 11
156
 21
0.500000000000034
 31
0
  0
ARC
  5
0
  8
Slice
 10
156.5
 20
0.500000000000036
 30
0
 40
0.5
 50
-180
 51
-90
  0
LINE
  5
0
  8
Slice
 10
156.5
 20
2.41952052263138e-14
 30
0
 11
178
 21
-1.53134210293124e-14
 31
0
  0
ARC
  5
0
  8
Slice
 10
178
 20
0.499999999999998
 30
0
 40
0.500000000000013
 50
-90
 51
0
  0
LINE
  5
0
  8
Slice
 10
178.5
 20
0.499999999999998
 30
0
 11
178.5
 21
15.5
 31
0
  0
ARC
  5
0
  8
Slice
 10
178
 20
15.5
 30
0
 40
0.5
 50
0
 51
90
  0
LINE
  5
0
  8
Slice
 10
178
 20
16
 30
0
 11
177.242640687119
 21
16
 31
0
  0
ARC
  5
0
  8
Slice
 10
177.242640687119
 20
15.5
 30
0
 40
0.5
 50
90
 51
160.528779365504
  0
ARC
  5
0
  8
Slice
 10
173
 20
17
 30
0
 40
4.00000000000003
 50
180
 51
340.528779365508
  0
LINE
  5
0
  8
Slice
 10
169
 20
17
 30
0
 11
169
 21
35.9
 31
0
  0
LINE
  5
0
  8
Slice
 10
169
 20
35.9
 30
0
 11
169
 21
78.9
 31
0
  0
LINE
  5
0
  8
Slice
 10
169
 20
78.9
 30
0
 11
169
 21
95.5
 31
0
  0
ARC
  5
0
  8
Slice
 10
168.5
 20
95.5
 30
0
 40
0.5
 50
0
 51
90
  0
LINE
  5
0
  8
Slice
 10
168.5
 20
96.0000000000001
 30
0
 11
163.5
 21
96.0000000000001
 31
0
  0
ARC
  5
0
  8
Slice
 10
163.5
 20
95.5
 30
0
 40
0.500000000000099
 50
90
 51
180
  0
LINE
  5
0
  8
Slice
 10
163
 20
95.5
 30
0
 11
163
 21
92.5000000000001
 31
0
  0
ARC
  5
0
  8
Slice
 10
162.5
 20
92.5000000000001
 30
0
 40
0.500000000000099
 50
-90
 51
0
  0
LINE
  5
0
  8
Slice
 10
162.5
 20
92
 30
0
 11
153.5
 21
92
 31
0
  0
ARC
  5
0
  8
Slice
 10
153.5
 20
92.5000000000001
 30
0
 40
0.5
 50
180
 51
270
  0
LINE
  5
0
  8
Slice
 10
153
 20
92.5000000000001
 30
0
 11
153
 21
113.5
 31
0
  0
ARC
  5
0
  8
Slice
 10
153.5
 20
113.5
 30
0
 40
0.5
 50
90
 51
180
  0
LINE
  5
0
  8
Slice
 10
153.5
 20
114
 30
0
 11
162.5
 21
114
 31
0
  0
ARC
  5
0
  8
Slice
 10
162.5
 20
113.5
 30
0
 40
0.5
 50
0
 51
90
  0
LINE
  5
0
  8
Slice
 10
163
 20
113.5
 30
0
 11
163
 21
110.5
 31
0
  0
ARC
  5
0
  8
Slice
 10
163.5
 20
110.5
 30
0
 40
0.5
 50
180
 51
270
  0
LINE
  5
0
  8
Slice
 10
163.5
 20
110
 30
0
 11
168.5
 21
110
 31
0
  0
ARC
  5
0
  8
Slice
 10
168.5
 20
110.5
 30
0
 40
0.5
 50
-90
 51
0
  0
LINE
  5
0
  8
Slice
 10
169
 20
110.5
 30
0
 11
169
 21
127.207106781187
 31
0
  0
LINE
  5
0
  8
Slice
 10
169
 20
127.207106781187
 30
0
 11
169
 21
159
 31
0
  0
LINE
  5
0
  8
Slice
 10
169
 20
159
 30
0
 11
159
 21
169
 31
0
  0
LINE
  5
0
  8
Slice
 10
159
 20
169
 30
0
 11
126.9
 21
169
 31
0
  0
LINE
  5
0
  8
Slice
 10
126.9
 20
169
 30
0
 11
110.5
 21
169
 31
0
  0
ARC
  5
0
  8
Slice
 10
110.5
 20
168.5
 30
0
 40
0.5
 50
90
 51
180
  0
LINE
  5
0
  8
Slice
 10
110
 20
168.5
 30
0
 11
110
 21
163.5
 31
0
  0
ARC
  5
0
  8
Slice
 10
110.5
 20
163.5
 30
0
 40
0.5
 50
180
 51
270
  0
LINE
  5
0
  8
Slice
 10
110.5
 20
163
 30
0
 11
113.5
 21
163
 31
0
  0
ARC
  5
0
  8
Slice
 10
113.5
 20
162.5
 30
0
 40
0.5
 50
0
 51
90
  0
LINE
  5
0
  8
Slice
 10
114
 20
162.5
 30
0
 11
114
 21
153.5
 31
0
  0
ARC
  5
0
  8
Slice
 10
113.5
 20
153.5
 30
0
 40
0.5
 50
-90
 51
0
  0
LINE
  5
0
  8
Slice
 10
113.5
 20
153
 30
0
 11
92.5000000000001
 21
153
 31
0
  0
ARC
  5
0
  8
Slice
 10
92.5000000000001
 20
153.5
 30
0
 40
0.5
 50
180
 51
270
  0
LINE
  5
0
  8
Slice
 10
92.0000000000001
 20
153.5
 30
0
 11
92.0000000000001
 21
162.5
 31
0
  0
ARC
  5
0
  8
Slice
 10
92.5000000000001
 20
162.5
 30
0
 40
0.5
 50
90
 51
180
  0
LINE
  5
0
  8
Slice
 10
92.5000000000001
 20
163
 30
0
 11
95.5000000000001
 21
163
 31
0
  0
ARC
  5
0
  8
Slice
 10
95.5000000000001
 20
163.5
 30
0
 40
0.5
 50
-90
 51
0
  0
LINE
  5
0
  8
Slice
 10
96.0000000000001
 20
163.5
 30
0
 11
96.0000000000001
 21
168.5
 31
0
  0
ARC
  5
0
  8
Slice
 10
95.5000000000001
 20
168.5
 30
0
 40
0.5
 50
0
 51
90
  0
LINE
  5
0
  8
Slice
 10
95.5000000000001
 20
169
 30
0
 11
78.9
 21
169
 31
0
  0
LINE
  5
0
  8
Slice
 10
78.9
 20
169
 30
0
 11
35.9
 21
169
 31
0
  0
LINE
  5
0
  8
Slice
 10
35.9
 20
169
 30
0
 11
17.0000000000001
 21
169
 31
0
  0
ARC
  5
0
  8
Slice
 10
17.0000000000001
 20
173
 30
0
 40
3.99999999999977
 50
109.471220634493
 51
270
  0
ARC
  5
0
  8
Slice
 10
15.5000000000001
 20
177.242640687119
 30
0
 40
0.499999999999945
 50
-70.5287793655154
 51
0
  0
LINE
  5
0
  8
Slice
 10
16.0000000000001
 20
177.242640687119
 30
0
 11
16.0000000000001
 21
178
 31
0
  0
ARC
  5
0
  8
Slice
 10
15.5000000000001
 20
178
 30
0
 40
0.499999999999998
 50
0
 51
90
  0
LINE
  5
0
  8
Slice
 10
15.5000000000001
 20
178.5
 30
0
 11
0.500000000000084
 21
178.5
 31
0
  0
ARC
  5
0
  8
Slice
 10
0.500000000000084
 20
178
 30
0
 40
0.5
 50
90
 51
180
  0
LINE
  5
0
  8
Slice
 10
7.105427357601e-14
 20
178
 30
0
 11
7.105427357601e-14
 21
156.5
 31
0
  0
ARC
  5
0
  8
Slice
 10
0.500000000000077
 20
156.5
 30
0
 40
0.500000000000006
 50
180
 51
270
  0
LINE
  5
0
  8
Slice
 10
0.500000000000078
 20
156
 30
0
 11
5.50000000000007
 21
156
 31
0
  0
ARC
  5
0
  8
Slice
 10
5.50000000000007
 20
155.5
 30
0
 40
0.5
 50
0
 51
90
  0
LINE
  5
0
  8
Slice
 10
6.00000000000007
 20
155.5
 30
0
 11
6.00000000000007
 21
144.5
 31
0
  0
ARC
  5
0
  8
Slice
 10
5.50000000000007
 20
144.5
 30
0
 40
0.499999999999972
 50
-90
 51
0
  0
LINE
  5
0
  8
Slice
 10
5.50000000000007
 20
144
 30
0
 11
0.500000000000078
 21
144
 31
0
  0
ARC
  5
0
  8
Slice
 10
0.500000000000074
 20
143.5
 30
0
 40
0.5
 50
89.9999999999995
 51
180
  0
LINE
  5
0
  8
Slice
 10
7.105427357601e-14
 20
143.5
 30
0
 11
7.105427357601e-14
 21
117
 31
0
  0
ARC
  5
0
  8
Slice
 10
0.500000000000065
 20
117
 30
0
 40
0.499999999999994
 50
180
 51
270
  0
LINE
  5
0
  8
Slice
 10
0.500000000000065
 20
116.5
 30
0
 11
13.6437039865158
 21
116.5
 31
0
  0
ARC
  5
0
  8
Slice
 10
13.6437039865158
 20
118.5
 30
0
 40
2.00000000000001
 50
-90
 51
19.9999999999896
  0
LINE
  5
0
  8
Slice
 10
15.5230892280877
 20
119.184040286651
 30
0
 11
12.1993423750526
 21
128.315959713349
 31
0
  0
ARC
  5
0
  8
Slice
 10
14.0787276166244
 20
129
 30
0
 40
2
 50
90
 51
199.999999999991
  0
LINE
  5
0
  8
Slice
 10
14.0787276166244
 20
131
 30
0
 11
15.8967424994912
 21
131
 31
0
  0
LINE
  5
0
  8
Slice
 10
15.8967424994912
 20
131
 30
0
 11
31.4274528917194
 21
131
 31
0
  0
ARC
  5
0
  8
Slice
 10
31.4274528917194
 20
130.5
 30
0
 40
0.499999999999745
 50
44.9999999999836
 51
90
  0
LINE
  5
0
  8
Slice
 10
31.7810062823126
 20
130.853553390593
 30
0
 11
71.064231509248
 21
91.5703281636579
 31
0
  0
ARC
  5
0
  8
Slice
 10
70.7106781186547
 20
91.2167747730646
 30
0
 40
0.499999999999974
 50
-44.9999999999919
 51
45.0000000000012
  0
LINE
  5
0
  8
Slice
 10
71.064231509248
 20
90.8632213824714
 30
0
 11
16.8705627484772
 21
36.6695526217005
 31
0
  0
ARC
  5
0
  8
Slice
 10
138.625631329235
 20
113.876893987706
 30
0
 40
2.06699999999999
 50
-90
 51
-90
  0
ARC
  5
0
  8
Slice
 10
113.876893987706
 20
138.625631329235
 30
0
 40
2.06699999999998
 50
-90
 51
-90
  0
ARC
  5
0
  8
Slice
 10
151
 20
55
 30
0
 40
2.067
 50
-90
 51
-90
  0
ARC
  5
0
  8
Slice
 10
55
 20
151
 30
0
 40
2.06700000000001
 50
-90
 51
-90
  0
ARC
  5
0
  8
Slice
 10
150
 20
20.0000000000001
 30
0
 40
6
 50
90
 51
90
  0
ARC
  5
0
  8
Slice
 10
20.0000000000001
 20
150
 30
0
 40
6
 50
90
 51
90
  0
ARC
  5
0
  8
Slice
 10
110
 20
110
 30
0
 40
6
 50
90
 51
90
  0
ARC
  5
0
  8
Slice
 10
34.9999999999998
 20
35
 30
0
 40
6
 50
89.9999999999981
 51
89.9999999999981
  0
ARC
  5
0
  8
Slice
 10
85.382953024552
 20
99.525088648283
 30
0
 40
1.62100000000001
 50
-90
 51
-90
  0
ARC
  5
0
  8
Slice
 10
99.5250886482829
 20
85.382953024552
 30
0
 40
1.621
 50
-90
 51
-90
  0
ARC
  5
0
  8
Slice
 10
87
 20
151
 30
0
 40
2.06700000000001
 50
-90
 51
-90
  0
ARC
  5
0
  8
Slice
 10
119
 20
151
 30
0
 40
2.06700000000001
 50
-90
 51
-90
  0
ARC
  5
0
  8
Slice
 10
151
 20
151
 30
0
 40
2.06700000000001
 50
-90
 51
-90
  0
ARC
  5
0
  8
Slice
 10
151
 20
87
 30
0
 40
2.06700000000001
 50
-90
 51
-90
  0
ARC
  5
0
  8
Slice
 10
151
 20
119
 30
0
 40
2.06700000000001
 50
-90
 51
-90
  0
LINE
  5
0
  8
Slice
 10
16.8705627484772
 20
36.6695526217005
 30
0
 11
11.9749098387899
 21
31.7738997120133
 31
0
  0
ARC
  5
0
  8
Slice
 10
34.9999999999998
 20
35
 30
0
 40
23.2499999999998
 50
-172.024074321697
 51
-97.9759256783027
  0
LINE
  5
0
  8
Slice
 10
31.7738997120133
 20
11.9749098387899
 30
0
 11
36.6695526217005
 21
16.8705627484771
 31
0
  0
ARC
  5
0
  8
Slice
 10
16.2978853736812
 20
30.4400209974122
 30
0
 40
1.621
 50
-90
 51
-90
  0
ARC
  5
0
  8
Slice
 10
30.4400209974123
 20
16.2978853736814
 30
0
 40
1.621
 50
-90
 51
-90
  0
ARC
  5
0
  8
Slice
 10
21.3881944621588
 20
21.3881944621588
 30
0
 40
1.621
 50
-90
 51
-90
  0
ARC
  5
0
  8
Slice
 10
-0.500000000000065
 20
117
 30
0
 40
0.5
 50
-90
 51
0
  0
LINE
  5
0
  8
Slice
 10
18.5597673374128
 20
18.5597673374128
 30
0
 11
20.2419743698554
 21
20.2419743698554
 31
0
  0
LINE
  5
0
  8
Slice
 10
20.2419743698554
 20
20.2419743698554
 30
0
 11
22.5344145544622
 21
22.5344145544622
 31
0
  0
LINE
  5
0
  8
Slice
 10
22.5344145544622
 20
22.5344145544622
 30
0
 11
26.7700576850888
 21
26.7700576850888
 31
0
  0
LINE
  5
0
  8
Slice
 10
26.7700576850888
 20
26.7700576850888
 30
0
 11
30.7573593128806
 21
30.7573593128806
 31
0
  0
LINE
  5
0
  8
Slice
 10
30.7573593128806
 20
30.7573593128806
 30
0
 11
39.2426406871192
 21
39.2426406871192
 31
0
  0
LINE
  5
0
  8
Slice
 10
39.2426406871192
 20
39.2426406871192
 30
0
 11
105.757359312881
 21
105.757359312881
 31
0
  0
LINE
  5
0
  8
Slice
 10
105.757359312881
 20
105.757359312881
 30
0
 11
114.242640687119
 21
114.242640687119
 31
0
  0
LINE
  5
0
  8
Slice
 10
114.242640687119
 20
114.242640687119
 30
0
 11
149.538410283287
 21
149.538410283288
 31
0
  0
LINE
  5
0
  8
Slice
 10
149.538410283287
 20
149.538410283288
 30
0
 11
152.461589716712
 21
152.461589716713
 31
0
  0
LINE
  5
0
  8
Slice
 10
152.461589716712
 20
152.461589716713
 30
0
 11
164
 21
164
 31
0
  0
ARC
  5
0
  8
Slice
 10
-5.50000000000007
 20
144.5
 30
0
 40
0.5
 50
180
 51
270
  0
ARC
  5
0
  8
Slice
 10
-0.500000000000077
 20
156.5
 30
0
 40
0.5
 50
-90.0000000000001
 51
0
  0
ARC
  5
0
  8
Slice
 10
-0.500000000000074
 20
143.5
 30
0
 40
0.500000000000003
 50
0
 51
90.0000000000005
  0
ARC
  5
0
  8
Slice
 10
-0.500000000000084
 20
178
 30
0
 40
0.500000000000013
 50
0
 51
90
  0
LINE
  5
0
  8
Slice
 10
-7.105427357601e-14
 20
143.5
 30
0
 11
-7.105427357601e-14
 21
117
 31
0
  0
LINE
  5
0
  8
Slice
 10
-7.105427357601e-14
 20
178
 30
0
 11
-7.105427357601e-14
 21
156.5
 31
0
  0
ENDSEC
  0
EOF
