  0
SECTION
  2
HEADER
  9
$ACADVER
  1
AC1009
  9
$INSBASE
 10
0.0
 20
0.0
 30
0.0
  9
$EXTMIN
 10
1.9639845305619e-13
 20
2.12829753820643e-13
 30
0.0
  9
$EXTMAX
 10
179
 20
179
 30
0.0
  9
$LIMMIN
 10
0.0
 20
0.0
  9
$LIMMAX
 10
12.0000
 20
 9.0000
9
$ORTHOMODE
70
0
9
$REGENMODE
70
1
9
$FILLMODE
70
1
9
$QTEXTMODE
70
0
9
$MIRRTEXT
70
1
9
$DRAGMODE
70
2
9
$LTSCALE
40
1.0
9
$OSMODE
70
0
9
$ATTMODE
70
1
9
$TEXTSIZE
40
0.2
9
$TRACEWID
40
0.05
9
$TEXTSTYLE
7
STANDARD
9
$CLAYER
8
0
9
$CELTYPE
6
BYLAYER
9
$CECOLOR
62
256
9
$DIMSCALE
40
1.0
9
$DIMASZ
40
0.18
9
$DIMEXO
40
0.0625
9
$DIMDLI
40
0.38
9
$DIMRND
40
0.0
9
$DIMDLE
40
0.0
9
$DIMEXE
40
0.18
9
$DIMTP
40
0.0
9
$DIMTM
40
0.0
9
$DIMTXT
40
0.18
9
$DIMCEN
40
0.09
9
$DIMTSZ
40
0.0
9
$DIMTOL
70
0
9
$DIMLIM
70
0
9
$DIMTIH
70
1
9
$DIMTOH
70
1
9
$DIMSE1
70
0
9
$DIMSE2
70
0
9
$DIMTAD
70
0
9
$DIMZIN
70
0
9
$DIMBLK
1

9
$DIMASO
70
1
9
$DIMSHO
70
1
9
$DIMPOST
1

9
$DIMAPOST
1

9
$DIMALT
70
0
9
$DIMALTD
70
2
9
$DIMALTF
40
25.4
9
$DIMLFAC
40
1.0
9
$DIMTOFL
70
0
9
$DIMTVP
40
0.0
9
$DIMTIX
70
0
9
$DIMSOXD
70
0
9
$DIMSAH
70
0
9
$DIMBLK1
1

9
$DIMBLK2
1

9
$DIMSTYLE
2
*UNNAMED
9
$DIMCLRD
70
0
9
$DIMCLRE
70
0
9
$DIMCLRT
70
0
9
$DIMTFAC
40
1.0
9
$DIMGAP
40
0.09
9
$LUNITS
70
2
9
$LUPREC
70
4
9
$SKETCHINC
40
0.1
9
$FILLETRAD
40
0.0
9
$AUNITS
70
0
9
$AUPREC
70
0
9
$MENU
1
acad
9
$ELEVATION
40
0.0
9
$PELEVATION
40
0.0
9
$THICKNESS
40
0.0
9
$LIMCHECK
70
0
9
$BLIPMODE
70
1
9
$CHAMFERA
40
0.0
9
$CHAMFERB
40
0.0
9
$SKPOLY
70
0
9
$TDCREATE
40
2449214.701881018
9
$TDUPDATE
40
2449214.701881018
9
$TDINDWG
40
0.0000000000
9
$TDUSRTIMER
40
0.0000000000
9
$USRTIMER
70
1
9
$ANGBASE
50
0.0
9
$ANGDIR
70
0
9
$PDMODE
70
0
9
$PDSIZE
40
0.0
9
$PLINEWID
40
0.0
9
$COORDS
70
1
9
$SPLFRAME
70
0
9
$SPLINETYPE
70
6
9
$SPLINESEGS
70
8
9
$ATTDIA
70
0
9
$ATTREQ
70
1
9
$HANDLING
70
0
9
$HANDSEED
5
0
9
$SURFTAB1
70
6
9
$SURFTAB2
70
6
9
$SURFTYPE
70
6
9
$SURFU
70
6
9
$SURFV
70
6
9
$UCSNAME
2

9
$UCSORG
10
0.0
20
0.0
30
0.0
9
$UCSXDIR
10
1.0
20
0.0
30
0.0
9
$UCSYDIR
10
0.0
20
1.0
30
0.0
9
$PUCSNAME
2

9
$PUCSORG
10
0.0
20
0.0
30
0.0
9
$PUCSXDIR
10
1.0
20
0.0
30
0.0
9
$PUCSYDIR
10
0.0
20
1.0
30
0.0
9
$USERI1
70
0
9
$USERI2
70
0
9
$USERI3
70
0
9
$USERI4
70
0
9
$USERI5
70
0
9
$USERR1
40
0.0
9
$USERR2
40
0.0
9
$USERR3
40
0.0
9
$USERR4
40
0.0
9
$USERR5
40
0.0
9
$WORLDVIEW
70
1
9
$SHADEDGE
70
3
9
$SHADEDIF
70
70
9
$TILEMODE
70
1
9
$MAXACTVP
70
16
9
$PINSBASE
10
0.0
20
0.0
30
0.0
9
$PLIMCHECK
70
0
  9
$PEXTMIN
 10
1.0000000000000000E+020
 20
1.0000000000000000E+020
 30
1.0000000000000000E+020
  9
$PEXTMAX
 10
-1.0000000000000000E+020
 20
-1.0000000000000000E+020
 30
-1.0000000000000000E+020
  9
$PLIMMIN
 10
1.9639845305619e-13
 20
2.12829753820643e-13
  9
$PLIMMAX
 10
12.0000
 20
 9.0000
  9
$UNITMODE
 70
0
  9
$VISRETAIN
 70
1
  9
$PLINEGEN
 70
0
  9
$PSLTSCALE
 70
1
  0
ENDSEC
  0
SECTION
  2
TABLES
  0
TABLE
  2
VPORT
 70
3
  0
VPORT
  2
*ACTIVE
 70
0
 10
0.0
 20
0.0
 11
1.0
 21
1.0
 12
89.5000000000002
 22
89.5000000000002
 13
0.0
 23
0.0
 14
1.0
 24
1.0
 15
1.0
 25
1.0
 16
0.0
 26
0.0
 36
1.0
 17
0.0
 27
0.0
 37
0.0
 40
179
 41
1
 42
50.0
 43
0.0
 44
0.0
 50
0.0
 51
0.0
 71
0
 72
100
 73
1
 74
3
 75
0
 76
0
 77
0
 78
0
  0
ENDTAB
0
TABLE
2
LTYPE
70
1
0
LTYPE
2
CONTINUOUS
70
64
3
Solid line
72
65
73
0
40
0.0
0
ENDTAB
  0
TABLE
  2
LAYER
 70
2
  0
LAYER
  2
Slice
 70
0
 62
7
  6
CONTINUOUS
  0
ENDTAB
0
TABLE
2
STYLE
70
1
0
STYLE
2
STANDARD
70
64
40
0.0
41
1.0
50
0.0
71
0
42
0.2
3
txt
4

0
ENDTAB
0
TABLE
2
VIEW
70
0
0
ENDTAB
0
TABLE
2
UCS
70
0
0
ENDTAB
0
TABLE
2
APPID
70
1
0
APPID
2
ACAD
70
64
0
ENDTAB
0
TABLE
2
DIMSTYLE
70
0
0
ENDTAB
0
ENDSEC
0
SECTION
2
BLOCKS
0
ENDSEC
  0
SECTION
  2
ENTITIES
  0
LINE
  5
0
  8
Slice
 10
109
 20
169.5
 30
0
 11
109
 21
162.5
 31
0
  0
ARC
  5
0
  8
Slice
 10
159.792893218813
 20
169.5
 30
0
 40
0.500000000000326
 50
44.9999999999171
 51
90
  0
LINE
  5
0
  8
Slice
 10
9.52000000000013
 20
21.0000000000002
 30
0
 11
10.0000000000001
 21
20.0000000000002
 31
0
  0
ARC
  5
0
  8
Slice
 10
169.5
 20
127.207106781187
 30
0
 40
0.500000000000295
 50
-45.0000000000795
 51
0
  0
LINE
  5
0
  8
Slice
 10
7.69000000000013
 20
26.0000000000002
 30
0
 11
8.00000000000013
 21
25.0000000000002
 31
0
  0
ARC
  5
0
  8
Slice
 10
169.5
 20
122.792893218813
 30
0
 40
0.5
 50
0
 51
45.0000000000806
  0
LINE
  5
0
  8
Slice
 10
169.853553390593
 20
123.146446609407
 30
0
 11
168.353553390593
 21
124.646446609407
 31
0
  0
LINE
  5
0
  8
Slice
 10
8.33000000000013
 20
24.0000000000002
 30
0
 11
8.70000000000013
 21
23.0000000000002
 31
0
  0
LINE
  5
0
  8
Slice
 10
170
 20
127.207106781187
 30
0
 11
170
 21
159.792893218813
 31
0
  0
LINE
  5
0
  8
Slice
 10
12.5000000000002
 20
16.0000000000002
 30
0
 11
13.5532639094508
 21
14.7310073380115
 31
0
  0
LINE
  5
0
  8
Slice
 10
127
 20
170
 30
0
 11
109.5
 21
170
 31
0
  0
LINE
  5
0
  8
Slice
 10
12.7279220613581
 20
41.01219330882
 30
0
 11
26.870057685089
 21
26.870057685089
 31
0
  0
ARC
  5
0
  8
Slice
 10
169.5
 20
159.792893218813
 30
0
 40
0.5
 50
0
 51
45.0000000000829
  0
LINE
  5
0
  8
Slice
 10
6.33513804085963
 20
28.1126272600644
 30
0
 11
7.35284968973465
 21
27.0682027662763
 31
0
  0
LINE
  5
0
  8
Slice
 10
162.5
 20
109
 30
0
 11
169.5
 21
109
 31
0
  0
LINE
  5
0
  8
Slice
 10
7.42687693650836
 20
26.9397252267565
 30
0
 11
7.69000000000013
 21
26.0000000000002
 31
0
  0
ARC
  5
0
  8
Slice
 10
162.5
 20
109.5
 30
0
 40
0.5
 50
180
 51
270
  0
LINE
  5
0
  8
Slice
 10
8.00000000000013
 20
25.0000000000002
 30
0
 11
8.33000000000013
 21
24.0000000000002
 31
0
  0
LINE
  5
0
  8
Slice
 10
170
 20
109.5
 30
0
 11
170
 21
122.792893218813
 31
0
  0
ARC
  5
0
  8
Slice
 10
7.13798773059411
 20
26.8588362491006
 30
0
 40
0.299999999999971
 50
15.6422464571927
 51
44.2578338361135
  0
ARC
  5
0
  8
Slice
 10
169.5
 20
109.5
 30
0
 40
0.499999999999986
 50
-90
 51
0
  0
ARC
  5
0
  8
Slice
 10
6.55000000000013
 20
34.4100071787502
 30
0
 40
0.300000000000031
 50
134.999999999996
 51
180
  0
LINE
  5
0
  8
Slice
 10
162
 20
112.5
 30
0
 11
162
 21
109.5
 31
0
  0
LINE
  5
0
  8
Slice
 10
12.7279220613581
 20
41.01219330882
 30
0
 11
6.33786796564416
 21
34.6221392131062
 31
0
  0
ARC
  5
0
  8
Slice
 10
161.5
 20
112.5
 30
0
 40
0.5
 50
0
 51
90
  0
ARC
  5
0
  8
Slice
 10
150
 20
20.0000000000003
 30
0
 40
5.5
 50
-90
 51
-90
  0
LINE
  5
0
  8
Slice
 10
6.25000000000014
 20
34.4100071787502
 30
0
 11
6.25000000000017
 21
28.3219937772402
 31
0
  0
LINE
  5
0
  8
Slice
 10
154.5
 20
113
 30
0
 11
161.5
 21
113
 31
0
  0
ARC
  5
0
  8
Slice
 10
154.5
 20
112.5
 30
0
 40
0.5
 50
90
 51
180
  0
LINE
  5
0
  8
Slice
 10
154
 20
93.5000000000002
 30
0
 11
154
 21
112.5
 31
0
  0
ARC
  5
0
  8
Slice
 10
15.8967424994914
 20
128
 30
0
 40
2
 50
90
 51
199.999999999991
  0
ARC
  5
0
  8
Slice
 10
162.5
 20
96.5000000000002
 30
0
 40
0.5
 50
90
 51
180
  0
ARC
  5
0
  8
Slice
 10
66.0437733628238
 20
94.7523086789977
 30
0
 40
0.299999999999974
 50
-45.0000000000115
 51
45
  0
ARC
  5
0
  8
Slice
 10
161.5
 20
93.5000000000002
 30
0
 40
0.499999999999986
 50
-90
 51
0
  0
ARC
  5
0
  8
Slice
 10
20.0000000000002
 20
150
 30
0
 40
5.50000000000003
 50
-90
 51
-90
  0
ARC
  5
0
  8
Slice
 10
154.5
 20
93.5000000000002
 30
0
 40
0.5
 50
180
 51
270
  0
LINE
  5
0
  8
Slice
 10
66.2559053971797
 20
94.5401766446417
 30
0
 11
12.7279220613581
 21
41.01219330882
 31
0
  0
LINE
  5
0
  8
Slice
 10
161.5
 20
93.0000000000002
 30
0
 11
154.5
 21
93.0000000000002
 31
0
  0
LINE
  5
0
  8
Slice
 10
15.8967424994914
 20
130
 30
0
 11
31.0132393293464
 21
130
 31
0
  0
LINE
  5
0
  8
Slice
 10
162
 20
96.5000000000002
 30
0
 11
162
 21
93.5000000000002
 31
0
  0
LINE
  5
0
  8
Slice
 10
0.500000000000194
 20
115
 30
0
 11
15.643703986516
 21
115
 31
0
  0
ARC
  5
0
  8
Slice
 10
169.5
 20
96.5000000000002
 30
0
 40
0.5
 50
0
 51
90
  0
LINE
  5
0
  8
Slice
 10
17.5230892280878
 20
117.684040286651
 30
0
 11
14.0173572579196
 21
127.315959713349
 31
0
  0
LINE
  5
0
  8
Slice
 10
169.5
 20
97.0000000000002
 30
0
 11
162.5
 21
97.0000000000002
 31
0
  0
ARC
  5
0
  8
Slice
 10
15.643703986516
 20
117
 30
0
 40
2
 50
-90
 51
19.9999999999914
  0
ARC
  5
0
  8
Slice
 10
176.464101615138
 20
17.5000000000002
 30
0
 40
0.5
 50
90
 51
171.786789298268
  0
ARC
  5
0
  8
Slice
 10
129.5
 20
31.0132393293465
 30
0
 40
0.5
 50
0
 51
45.0000000000147
  0
LINE
  5
0
  8
Slice
 10
94.9644407133533
 20
66.2559053971801
 30
0
 11
129.853553390593
 21
31.3667927199397
 31
0
  0
LINE
  5
0
  8
Slice
 10
130
 20
31.0132393293465
 30
0
 11
130
 21
15.8967424994915
 31
0
  0
LINE
  5
0
  8
Slice
 10
97.0000000000002
 20
162.5
 30
0
 11
97.0000000000002
 21
169.5
 31
0
  0
ARC
  5
0
  8
Slice
 10
128
 20
15.8967424994915
 30
0
 40
1.99999999999986
 50
-109.999999999991
 51
0
  0
ARC
  5
0
  8
Slice
 10
96.5000000000002
 20
162.5
 30
0
 40
0.5
 50
-90
 51
0
  0
LINE
  5
0
  8
Slice
 10
127.315959713349
 20
14.0173572579197
 30
0
 11
117.684040286651
 21
17.5230892280879
 31
0
  0
ARC
  5
0
  8
Slice
 10
96.5000000000002
 20
169.5
 30
0
 40
0.5
 50
0
 51
90
  0
LINE
  5
0
  8
Slice
 10
145
 20
0.500000000000218
 30
0
 11
145
 21
4.75000000000026
 31
0
  0
ARC
  5
0
  8
Slice
 10
17.5000000000002
 20
176.464101615138
 30
0
 40
0.500000000000604
 50
-81.7867892982683
 51
0
  0
ARC
  5
0
  8
Slice
 10
144.5
 20
0.500000000000217
 30
0
 40
0.499999999999933
 50
-90
 51
1.01777749806833e-13
  0
LINE
  5
0
  8
Slice
 10
18.0000000000002
 20
176.464101615138
 30
0
 11
18.0000000000002
 21
178.5
 31
0
  0
LINE
  5
0
  8
Slice
 10
115.5
 20
3.41549865947726e-13
 30
0
 11
144.5
 21
2.83511505159406e-13
 31
0
  0
LINE
  5
0
  8
Slice
 10
96.5000000000002
 20
170
 30
0
 11
79.0000000000002
 21
170
 31
0
  0
ARC
  5
0
  8
Slice
 10
115.5
 20
0.500000000000229
 30
0
 40
0.5
 50
180
 51
270
  0
LINE
  5
0
  8
Slice
 10
79.0000000000002
 20
170
 30
0
 11
36.0000000000002
 21
170
 31
0
  0
ARC
  5
0
  8
Slice
 10
117
 20
15.6437039865161
 30
0
 40
1.99999999999987
 50
70.000000000009
 51
180
  0
LINE
  5
0
  8
Slice
 10
93.5000000000002
 20
162
 30
0
 11
96.5000000000002
 21
162
 31
0
  0
LINE
  5
0
  8
Slice
 10
115
 20
15.6437039865161
 30
0
 11
115
 21
0.50000000000023
 31
0
  0
ARC
  5
0
  8
Slice
 10
145.5
 20
4.75000000000026
 30
0
 40
0.499999999999989
 50
90
 51
180
  0
ARC
  5
0
  8
Slice
 10
155.5
 20
0.500000000000213
 30
0
 40
0.5
 50
180
 51
270
  0
LINE
  5
0
  8
Slice
 10
2.20537032919636e-13
 20
178.5
 30
0
 11
2.14153250528041e-13
 21
155.5
 31
0
  0
ARC
  5
0
  8
Slice
 10
0.500000000000225
 20
178.5
 30
0
 40
0.500000000000028
 50
89.9999999999999
 51
180
  0
ARC
  5
0
  8
Slice
 10
154.5
 20
4.75000000000026
 30
0
 40
0.5
 50
0
 51
90
  0
LINE
  5
0
  8
Slice
 10
17.5000000000002
 20
179
 30
0
 11
0.500000000000226
 21
179
 31
0
  0
ARC
  5
0
  8
Slice
 10
178.5
 20
17.5000000000002
 30
0
 40
0.5
 50
0
 51
90
  0
ARC
  5
0
  8
Slice
 10
0.500000000000214
 20
155.5
 30
0
 40
0.499999999999999
 50
180
 51
270
  0
LINE
  5
0
  8
Slice
 10
145.5
 20
5.25000000000025
 30
0
 11
154.5
 21
5.25000000000025
 31
0
  0
LINE
  5
0
  8
Slice
 10
0.500000000000214
 20
155
 30
0
 11
4.75000000000022
 21
155
 31
0
  0
LINE
  5
0
  8
Slice
 10
155
 20
4.75000000000026
 30
0
 11
155
 21
0.500000000000215
 31
0
  0
ARC
  5
0
  8
Slice
 10
4.75000000000021
 20
154.5
 30
0
 40
0.50000000000001
 50
0
 51
89.9999999999989
  0
ARC
  5
0
  8
Slice
 10
178.5
 20
0.500000000000202
 30
0
 40
0.499999999999987
 50
-90
 51
2.28999937065373e-13
  0
ARC
  5
0
  8
Slice
 10
0.500000000000208
 20
144.5
 30
0
 40
0.5
 50
89.9999999999996
 51
180
  0
LINE
  5
0
  8
Slice
 10
179
 20
0.500000000000204
 30
0
 11
179
 21
17.5000000000002
 31
0
  0
LINE
  5
0
  8
Slice
 10
4.75000000000021
 20
145
 30
0
 11
0.500000000000212
 21
145
 31
0
  0
LINE
  5
0
  8
Slice
 10
170
 20
79.0000000000002
 30
0
 11
170
 21
96.5000000000002
 31
0
  0
LINE
  5
0
  8
Slice
 10
11.7600000000002
 20
17.0000000000002
 30
0
 11
12.5000000000002
 21
16.0000000000002
 31
0
  0
LINE
  5
0
  8
Slice
 10
168.353553390593
 20
125.353553390593
 30
0
 11
169.853553390593
 21
126.853553390593
 31
0
  0
LINE
  5
0
  8
Slice
 10
11.1100000000002
 20
18.0000000000002
 30
0
 11
11.7600000000002
 21
17.0000000000002
 31
0
  0
LINE
  5
0
  8
Slice
 10
170
 20
36.0000000000002
 30
0
 11
170
 21
79.0000000000002
 31
0
  0
ARC
  5
0
  8
Slice
 10
0.500000000000194
 20
115.5
 30
0
 40
0.499999999999991
 50
180
 51
270
  0
LINE
  5
0
  8
Slice
 10
178.5
 20
18.0000000000002
 30
0
 11
176.464101615138
 21
18.0000000000002
 31
0
  0
LINE
  5
0
  8
Slice
 10
155.5
 20
2.6149695451556e-13
 30
0
 11
178.5
 21
2.15466530442064e-13
 31
0
  0
LINE
  5
0
  8
Slice
 10
2.11100137210322e-13
 20
144.5
 30
0
 11
2.0305102028179e-13
 21
115.5
 31
0
  0
LINE
  5
0
  8
Slice
 10
170
 20
18.0000000000002
 30
0
 11
170
 21
36.0000000000002
 31
0
  0
LINE
  5
0
  8
Slice
 10
10.5300000000002
 20
19.0000000000002
 30
0
 11
11.1100000000002
 21
18.0000000000002
 31
0
  0
LINE
  5
0
  8
Slice
 10
159.792893218813
 20
170
 30
0
 11
127
 21
170
 31
0
  0
ARC
  5
0
  8
Slice
 10
31.0132393293464
 20
129.5
 30
0
 40
0.499999999999843
 50
44.999999999977
 51
90
  0
LINE
  5
0
  8
Slice
 10
36.0000000000002
 20
170
 30
0
 11
18.0000000000002
 21
170
 31
0
  0
ARC
  5
0
  8
Slice
 10
35.0000000000002
 20
35.0000000000002
 30
0
 40
5.5
 50
-90
 51
-90
  0
ARC
  5
0
  8
Slice
 10
4.7500000000002
 20
145.5
 30
0
 40
0.5
 50
-89.9999999999988
 51
0
  0
ARC
  5
0
  8
Slice
 10
6.55000000000017
 20
28.3219937772402
 30
0
 40
0.3
 50
179.999999999999
 51
224.257833836126
  0
LINE
  5
0
  8
Slice
 10
5.25000000000022
 20
154.5
 30
0
 11
5.25000000000021
 21
145.5
 31
0
  0
LINE
  5
0
  8
Slice
 10
9.09000000000013
 20
22.0000000000002
 30
0
 11
9.52000000000013
 21
21.0000000000002
 31
0
  0
LINE
  5
0
  8
Slice
 10
17.0000000000002
 20
11.7600000000001
 30
0
 11
18.0000000000002
 21
11.1100000000002
 31
0
  0
LINE
  5
0
  8
Slice
 10
8.70000000000013
 20
23.0000000000002
 30
0
 11
9.09000000000013
 21
22.0000000000002
 31
0
  0
LINE
  5
0
  8
Slice
 10
10.0000000000001
 20
20.0000000000002
 30
0
 11
10.5300000000002
 21
19.0000000000002
 31
0
  0
ARC
  5
0
  8
Slice
 10
17.5000000000002
 20
178.5
 30
0
 40
0.5
 50
0
 51
90
  0
ARC
  5
0
  8
Slice
 10
18.0000000000002
 20
173
 30
0
 40
2.99999999999963
 50
98.2132107017386
 51
270
  0
ARC
  5
0
  8
Slice
 10
93.5000000000002
 20
161.5
 30
0
 40
0.5
 50
90
 51
180
  0
ARC
  5
0
  8
Slice
 10
110
 20
110
 30
0
 40
5.5
 50
-90
 51
-90
  0
LINE
  5
0
  8
Slice
 10
31.3667927199397
 20
129.853553390593
 30
0
 11
66.2559053971797
 21
94.9644407133536
 31
0
  0
ARC
  5
0
  8
Slice
 10
109.5
 20
169.5
 30
0
 40
0.5
 50
90
 51
180
  0
LINE
  5
0
  8
Slice
 10
14.7310073380115
 20
13.5532639094508
 30
0
 11
16.0000000000002
 21
12.5000000000002
 31
0
  0
ARC
  5
0
  8
Slice
 10
112.5
 20
161.5
 30
0
 40
0.5
 50
0
 51
90
  0
LINE
  5
0
  8
Slice
 10
18.0000000000002
 20
11.1100000000002
 30
0
 11
19.0000000000002
 21
10.5300000000002
 31
0
  0
LINE
  5
0
  8
Slice
 10
16.0000000000002
 20
12.5000000000002
 30
0
 11
17.0000000000002
 21
11.7600000000001
 31
0
  0
LINE
  5
0
  8
Slice
 10
19.0000000000002
 20
10.5300000000002
 30
0
 11
20.0000000000002
 21
10.0000000000002
 31
0
  0
LINE
  5
0
  8
Slice
 10
23.0000000000002
 20
8.70000000000019
 30
0
 11
24.0000000000002
 21
8.33000000000021
 31
0
  0
LINE
  5
0
  8
Slice
 10
109.5
 20
162
 30
0
 11
112.5
 21
162
 31
0
  0
LINE
  5
0
  8
Slice
 10
112.5
 20
154
 30
0
 11
93.5000000000002
 21
154
 31
0
  0
ARC
  5
0
  8
Slice
 10
112.5
 20
154.5
 30
0
 40
0.5
 50
-90
 51
0
  0
LINE
  5
0
  8
Slice
 10
113
 20
161.5
 30
0
 11
113
 21
154.5
 31
0
  0
ARC
  5
0
  8
Slice
 10
109.5
 20
162.5
 30
0
 40
0.499999999999986
 50
180
 51
270
  0
ARC
  5
0
  8
Slice
 10
168.707106781187
 20
125
 30
0
 40
0.500000000000356
 50
135.000000000084
 51
224.999999999916
  0
ARC
  5
0
  8
Slice
 10
173
 20
18.0000000000002
 30
0
 40
3
 50
180
 51
351.786789298261
  0
ARC
  5
0
  8
Slice
 10
94.7523086789973
 20
66.0437733628241
 30
0
 40
0.300000000000055
 50
45
 51
134.999999999983
  0
LINE
  5
0
  8
Slice
 10
41.0121933088197
 20
12.7279220613583
 30
0
 11
94.5401766446414
 21
66.2559053971801
 31
0
  0
LINE
  5
0
  8
Slice
 10
20.0000000000002
 20
10.0000000000002
 30
0
 11
21.0000000000002
 21
9.5200000000002
 31
0
  0
ARC
  5
0
  8
Slice
 10
26.8588362491006
 20
7.13798773059417
 30
0
 40
0.299999999999999
 50
45.7421661638879
 51
74.3577535428085
  0
LINE
  5
0
  8
Slice
 10
24.0000000000002
 20
8.33000000000021
 30
0
 11
25.0000000000002
 21
8.0000000000002
 31
0
  0
LINE
  5
0
  8
Slice
 10
21.0000000000002
 20
9.5200000000002
 30
0
 11
22.0000000000002
 21
9.09000000000019
 31
0
  0
LINE
  5
0
  8
Slice
 10
22.0000000000002
 20
9.09000000000019
 30
0
 11
23.0000000000002
 21
8.70000000000019
 31
0
  0
LINE
  5
0
  8
Slice
 10
28.3219937772401
 20
6.25000000000023
 30
0
 11
34.4100071787502
 21
6.25000000000019
 31
0
  0
LINE
  5
0
  8
Slice
 10
93.0000000000002
 20
154.5
 30
0
 11
93.0000000000002
 21
161.5
 31
0
  0
LINE
  5
0
  8
Slice
 10
169.853553390593
 20
160.146446609407
 30
0
 11
165
 21
165
 31
0
  0
ARC
  5
0
  8
Slice
 10
28.3219937772402
 20
6.55000000000023
 30
0
 40
0.300000000000056
 50
-134.257833836129
 51
-90.0000000000204
  0
LINE
  5
0
  8
Slice
 10
25.0000000000002
 20
8.0000000000002
 30
0
 11
26.0000000000002
 21
7.6900000000002
 31
0
  0
LINE
  5
0
  8
Slice
 10
27.0682027662763
 20
7.35284968973473
 30
0
 11
28.1126272600644
 21
6.3351380408597
 31
0
  0
LINE
  5
0
  8
Slice
 10
34.6221392131059
 20
6.3378679656445
 30
0
 11
41.0121933088197
 21
12.7279220613583
 31
0
  0
ARC
  5
0
  8
Slice
 10
93.5000000000002
 20
154.5
 30
0
 40
0.499999999999986
 50
180
 51
270
  0
LINE
  5
0
  8
Slice
 10
26.0000000000002
 20
7.6900000000002
 30
0
 11
26.9397252267565
 21
7.42687693650843
 31
0
  0
ARC
  5
0
  8
Slice
 10
34.4100071787502
 20
6.5500000000002
 30
0
 40
0.30000000000001
 50
-90
 51
-45.0000000000004
  0
LINE
  5
0
  8
Slice
 10
13.5532639094508
 20
14.7310073380115
 30
0
 11
14.1421356237311
 21
14.1421356237308
 31
0
  0
LINE
  5
0
  8
Slice
 10
14.1421356237311
 20
14.1421356237308
 30
0
 11
14.7310073380113
 21
13.5532639094506
 31
0
  0
LINE
  5
0
  8
Slice
 10
113.889087296526
 20
113.889087296526
 30
0
 11
165
 21
165
 31
0
  0
LINE
  5
0
  8
Slice
 10
106.110912703474
 20
106.110912703475
 30
0
 11
113.889087296526
 21
113.889087296526
 31
0
  0
LINE
  5
0
  8
Slice
 10
38.8890872965261
 20
38.8890872965261
 30
0
 11
106.110912703474
 21
106.110912703475
 31
0
  0
LINE
  5
0
  8
Slice
 10
26.870057685089
 20
26.870057685089
 30
0
 11
31.1109127034739
 21
31.1109127034739
 31
0
  0
LINE
  5
0
  8
Slice
 10
31.1109127034739
 20
31.1109127034739
 30
0
 11
38.8890872965261
 21
38.8890872965261
 31
0
  0
LINE
  5
0
  8
Slice
 10
26.870057685089
 20
26.870057685089
 30
0
 11
41.0121933088197
 21
12.7279220613583
 31
0
  0
LINE
  5
0
  8
Slice
 10
14.1421356237311
 20
14.1421356237308
 30
0
 11
26.870057685089
 21
26.870057685089
 31
0
  0
LINE
  5
0
  8
Slice
 10
165
 20
165
 30
0
 11
160.146446609407
 21
169.853553390593
 31
0
  0
ENDSEC
  0
EOF
